<svg width="32" height="32" viewBox="0 0 32 32" fill="none" xmlns="http://www.w3.org/2000/svg" role="img" aria-hidden="true" xmlns:xlink="http://www.w3.org/1999/xlink"><path fill-rule="evenodd" clip-rule="evenodd" d="M14.5776 23.9674V16.6681C14.7923 16.6869 14.9976 16.6967 15.2124 16.6967C16.2362 16.6967 17.1997 16.4292 18.0179 15.9531V23.9674C18.0179 24.6516 17.8536 25.1572 17.5368 25.4951C17.2204 25.832 16.7996 26 16.2874 26C15.7856 26 15.3862 25.832 15.0583 25.485C14.7415 25.1482 14.5776 24.6413 14.5776 23.9674Z" fill="#2557a7"></path><path fill-rule="evenodd" clip-rule="evenodd" d="M17.3725 14.5945C16.0931 15.2292 14.5257 14.7342 13.8805 13.494C13.2251 12.2539 13.7377 10.7367 15.0172 10.1119C16.2976 9.47692 17.8649 9.97223 18.5092 11.2128C19.1646 12.4525 18.6529 13.9698 17.3725 14.5945Z" fill="#2557a7"></path><path fill-rule="evenodd" clip-rule="evenodd" d="M14.5974 6.47191C16.7274 5.72749 19.1542 5.7672 20.9764 7.2946C21.315 7.6019 21.7033 7.98862 21.8574 8.44506C22.042 9.02032 21.213 8.38488 21.099 8.30661C20.5056 7.92928 19.9113 7.61221 19.2467 7.39334C15.6634 6.32284 12.273 8.25704 10.165 11.2622C9.28484 12.5913 8.7104 13.9892 8.23996 15.5264C8.18915 15.6956 8.14781 15.9144 8.05489 16.0615C7.96282 16.2316 8.0144 15.6071 8.0144 15.5863C8.08546 14.9521 8.21933 14.337 8.38322 13.722C9.35543 10.4485 11.5052 7.72111 14.5974 6.47191Z" fill="#2557a7"></path></svg>