<svg height="512" viewBox="0 0 59 58" width="512" xmlns="http://www.w3.org/2000/svg"><g id="025---Male-User-Account-Settings" fill="none"><circle id="Oval" cx="29" cy="29" fill="#3d324c" r="29"/><path id="Shape" d="m15.32 24c-.8435909-2.273544-1.2900922-4.6751797-1.32-7.1 0-6.6 6.2-12.9 13.71-12.9s10.44 5.1 10.44 5.1h.32s6.53.3 6.53 8.7c-.0100465 2.2100266-.5629177 4.3837377-1.61 6.33l-2.39 1.87h-24z" fill="#805333"/><path id="Shape" d="m18.06 24c-.6832416-2.3055355-1.0400441-4.6954388-1.06-7.1 0-6.6 5-12.9 11.06-12.9 3.5366363.0021108 6.7799829 1.96660817 8.42 5.1h.25s5.27.3 5.27 8.7c-.0008023 2.1762021-.4430535 4.3296253-1.3 6.33l-1.93 1.87h-19.35z" fill="#a56a43"/><path id="Shape" d="m35 40v13.27c-6.2072344 1.5400752-12.7693018.626687-18.32-2.55 1.5106912-1.1554591 2.953112-2.3975437 4.32-3.72v-8z" fill="#fdd7ad"/><path id="Shape" d="m35 40v3.88l-3 4.71c-.71.26-1 .21-4.73.21-3.23 0-3.4-2.76-6.3-5.68v-4.12z" fill="#f9c795"/><path id="Shape" d="m42.56 32.23c.7228076-.9172105 1.1732697-2.0191101 1.3-3.18.36-1.75.59-5.33-1.18-5.06-1.1298259-.1296538-2.1543248.672128-2.3 1.8 0 .1.48 0-22.91-.23 0 0-.09-1.57-2.15-1.57-1.78-.27-1.53 3.32-1.18 5.06.1963891 2.220622 1.6337162 4.1383496 3.71 4.95h24.15z" fill="#f9c795"/><path id="Shape" d="m40.12 33c-.1776761-1.6722605-.0728816-3.3624941.31-5 0-1.13 0-2.15-.09-2.93-.6-9.07-3.82-10.87-3.82-10.87-2.94 4.8-9.79 5.4-9.79 5.4h-5.22c-2.35 0-4 .94-4.12 3.09-.11 2 .44 7.06.35 6.22.74 4.45-1.33 7.26 2.75 10.92 3.28 3 3.37 6.17 6.81 6.17 3.12 0 3.92.09 4.73-.21z" fill="#fdd7ad"/><path id="Shape" d="m53.06 46.69c-.0986784.2791821-.2121729.552904-.34.82-.1666864.3464377-.1440353.754158.06 1.08l1.85 2.78c.2838091.4235073.2294089.9884322-.13 1.35l-1.78 1.78c-.3615678.3594089-.9264927.4138091-1.35.13l-2.78-1.85c-.325842-.2040353-.7335623-.2266864-1.08-.06-.267096.1278271-.5408179.2413216-.82.34-.360799.1263189-.6322529.4279344-.72.8l-.65 3.28c-.0960191.4824523-.5086104.8372809-1 .86h-2.59c-.4913896-.0227191-.9039809-.3775477-1-.86l-.73-3.28c-.0877471-.3720656-.359201-.6736811-.72-.8-.2791821-.0986784-.552904-.2121729-.82-.34-.3464377-.1666864-.754158-.1440353-1.08.06l-2.78 1.85c-.4235073.2838091-.9884322.2294089-1.35-.13l-1.75-1.78c-.3594089-.3615678-.4138091-.9264927-.13-1.35l1.85-2.78c.2040353-.325842.2266864-.7335623.06-1.08-.1278271-.267096-.2413216-.5408179-.34-.82-.1263189-.360799-.4279344-.6322529-.8-.72l-3.28-.65c-.4824523-.0960191-.8372809-.5086104-.86-1v-2.59c.0227191-.4913896.3775477-.9039809.86-1l3.28-.73c.3720656-.0877471.6736811-.359201.8-.72.0986784-.2791821.2121729-.552904.34-.82.1666864-.3464377.1440353-.754158-.06-1.08l-1.85-2.78c-.2838091-.4235073-.2294089-.9884322.13-1.35l1.78-1.78c.3615678-.3594089.9264927-.4138091 1.35-.13l2.78 1.85c.325842.2040353.7335623.2266864 1.08.06.267096-.1278271.5408179-.2413216.82-.34.360799-.1263189.6322529-.4279344.72-.8l.65-3.28c.0960191-.4824523.5086104-.8372809 1-.86h2.54c.4913896.0227191.9039809.3775477 1 .86l.78 3.31c.0877471.3720656.359201.6736811.72.8.2791821.0986784.552904.2121729.82.34.3464377.1666864.754158.1440353 1.08-.06l2.78-1.85c.4235073-.2838091.9884322-.2294089 1.35.13l1.78 1.78c.3594089.3615678.4138091.9264927.13 1.35l-1.85 2.78c-.2040353.325842-.2266864.7335623-.06 1.08.1278271.267096.2413216.5408179.34.82.1263189.360799.4279344.6322529.8.72l3.28.65c.4824523.0960191.8372809.5086104.86 1v2.54c-.0227191.4913896-.3775477.9039809-.86 1l-3.31.78c-.3652053.0818838-.6653733.3407787-.8.69z" fill="#547580"/><circle id="Oval" cx="43" cy="43" fill="#2c3e50" r="3"/></g></svg>