<svg xmlns="http://www.w3.org/2000/svg" focusable="false" role="img" fill="currentColor" viewBox="0 0 24 24" aria-hidden="true" class="css-1tvjh98 eac13zx0" xmlns:xlink="http://www.w3.org/1999/xlink"><title>selected</title><path fill-rule="evenodd" d="M12 2C6.477 2 2 6.477 2 12s4.477 10 10 10 10-4.477 10-10S17.523 2 12 2zm3.89 6.11a.5.5 0 01.706 0l.708.708a.5.5 0 010 .707l-6.365 6.364a.5.5 0 01-.707 0l-3.535-3.535a.5.5 0 010-.707l.707-.707a.5.5 0 01.707 0l2.475 2.474 5.303-5.303z" clip-rule="evenodd"></path></svg>